#!OML:ASF I:\golf\golf\golf 2\Subject 1\2002-09-07\Subject1.ASF
:FULLY-SPECIFIED
:DEGREES
262
root -6.54026 17.7574 2.41899 -0.0599358 47.3391 -14.2873
lowerback 2.01579 -9.03553 -11.2696
upperback 1.40463 -12.092 -1.91741
thorax 2.24425 -6.13954 3.9302
lowerneck -8.27572 19.4856 2.71107
upperneck 18.708 30.0894 -14.2809
head 10.0086 12.9713 -1.36707
rclavicle 6.55989e-014 -2.22639e-014
rhumerus 13.6653 -15.201 -74.8547
rradius 106.09
rwrist -16.1784
rhand -60.1373 50.604
rfingers 7.12502
rthumb -32.2826 23.4552
lclavicle 6.55989e-014 -2.22639e-014
lhumerus 100.435 -49.9842 41.2565
lradius 32.6219
lwrist -8.04148
lhand -24.3289 1.89776
lfingers 7.12502
lthumb -177.84 -148.133
rfemur -31.4502 15.8171 23.4384
rtibia 30.8378
rfoot -8.60543 16.5232
rtoes 14.5144
lfemur -3.75359 14.2819 5.10512
ltibia 28.7246
lfoot -3.82101 22.1789
ltoes -31.7035
263
root -6.53665 17.7593 2.44381 0.178944 47.2163 -14.0306
lowerback 2.14253 -9.14205 -11.2903
upperback 1.2863 -12.2586 -1.97649
thorax 2.06546 -6.20876 3.90513
lowerneck -8.51728 19.5613 2.55531
upperneck 18.6155 30.1542 -14.1194
head 9.96984 12.9993 -1.27363
rclavicle -4.27387e-014 -2.22639e-014
rhumerus 14.5233 -15.4415 -73.9736
rradius 106.524
rwrist -14.8983
rhand -60.3064 51.1042
rfingers 7.12502
rthumb -32.4435 23.9882
lclavicle -4.27387e-014 -2.22639e-014
lhumerus 101.043 -49.5748 41.4251
lradius 32.9486
lwrist -8.70778
lhand -25.3949 1.81221
lfingers 7.12502
lthumb -178.87 -148.211
rfemur -31.5433 15.9919 23.3037
rtibia 31.0554
rfoot -8.73825 16.5126
rtoes 14.7517
lfemur -3.48789 14.1477 4.9644
ltibia 28.3655
lfoot -3.46503 22.3115
ltoes -32.0069
264
root -6.53467 17.7558 2.47005 0.318433 47.0937 -13.8137
lowerback 2.35509 -9.26732 -11.3719
upperback 1.10762 -12.4694 -1.97896
thorax 1.80764 -6.29605 3.98686
lowerneck -8.32879 19.6524 2.44612
upperneck 18.274 30.2189 -14.1649
head 9.81098 13.0613 -1.30011
rclavicle -1.23246e-014 1.27222e-014
rhumerus 15.2941 -15.6022 -73.0009
rradius 107.016
rwrist -13.6993
rhand -60.3294 51.5332
rfingers 7.12502
rthumb -32.4654 24.4217
lclavicle -1.23246e-014 1.27222e-014
lhumerus 101.44 -49.0646 41.6836
lradius 33.2608
lwrist -9.1502
lhand -26.1393 1.68323
lfingers 7.12502
lthumb -179.589 -148.337
rfemur -31.5434 16.2112 23.2183
rtibia 31.2262
rfoot -8.87599 16.4591
rtoes 14.7416
lfemur -3.12037 14.0478 4.90626
ltibia 28.0593
lfoot -3.60376 22.3051
ltoes -31.3681
265
root -6.53349 17.7536 2.49601 0.54576 46.9522 -13.5686
lowerback 2.38681 -9.3274 -11.4137
upperback 1.00333 -12.5611 -2.03287
thorax 1.69056 -6.33132 3.96517
lowerneck -8.25026 19.7021 2.33813
upperneck 17.8913 30.2076 -14.1825
head 9.64543 13.0885 -1.32126
rclavicle 1.54257e-013 1.90833e-014
rhumerus 16.0863 -16.0386 -72.045
rradius 107.451
rwrist -12.539
rhand -60.2372 52.4069
rfingers 7.12502
rthumb -32.3776 25.2774
lclavicle 1.54257e-013 1.90833e-014
lhumerus 102.291 -48.5563 41.5861
lradius 33.6628
lwrist -9.32317
lhand -26.8519 1.44094
lfingers 7.12502
lthumb -180.277 -148.579
rfemur -31.5929 16.4674 23.0783
rtibia 31.3182
rfoot -8.91467 16.3955
rtoes 14.9962
lfemur -2.79393 13.9844 4.80926
ltibia 27.8421
lfoot -4.36654 22.2161
ltoes -29.5582
266
root -6.53241 17.7563 2.51718 0.833324 46.7823 -13.3859
lowerback 2.32138 -9.33506 -11.3955
upperback 0.843884 -12.5743 -2.07369
thorax 1.54709 -6.32429 3.92167
lowerneck -8.03477 19.697 2.29924
upperneck 17.5534 30.1193 -14.204
head 9.47684 13.0898 -1.37588
rclavicle 1.56046e-013 6.36111e-015
rhumerus 16.6679 -16.5713 -70.9431
rradius 107.891
rwrist -11.5159
rhand -60.1772 53.3589
rfingers 7.12502
rthumb -32.3205 26.2177
lclavicle 1.56046e-013 6.36111e-015
lhumerus 102.831 -48.3646 42.0455
lradius 34.1174
lwrist -9.75772
lhand -27.1412 0.992287
lfingers 7.12502
lthumb -180.556 -149.029
rfemur -31.7507 16.6985 22.9484
rtibia 31.3643
rfoot -8.86704 16.375
rtoes 15.4192
lfemur -2.71903 13.9858 4.71142
ltibia 27.6821
lfoot -4.66351 22.299
ltoes -28.4235
267
root -6.53026 17.7639 2.53684 1.04487 46.6667 -13.2678
lowerback 2.38469 -9.40593 -11.3474
upperback 0.64832 -12.6925 -2.0928
thorax 1.30863 -6.36424 3.90605
lowerneck -7.78328 19.7428 2.3167
upperneck 17.2462 30.1093 -14.2438
head 9.33267 13.1266 -1.43039
rclavicle 3.8763e-014 -2.8625e-014
rhumerus 17.1869 -16.9408 -69.8779
rradius 108.37
rwrist -10.5586
rhand -60.2089 54.1574
rfingers 7.12502
rthumb -32.3507 27.0224
lclavicle 3.8763e-014 -2.8625e-014
lhumerus 103.014 -48.1845 42.7092
lradius 34.499
lwrist -10.6064
lhand -27.5164 0.643619
lfingers 7.12502
lthumb -180.919 -149.379
rfemur -31.8663 16.8615 22.8785
rtibia 31.4176
rfoot -8.86069 16.3526
rtoes 15.4864
lfemur -2.81154 14.0563 4.6569
ltibia 27.5432
lfoot -3.52282 22.4533
ltoes -30.7492
268
root -6.52738 17.7706 2.5577 1.2453 46.5798 -13.076
lowerback 2.50338 -9.55101 -11.3602
upperback 0.571158 -12.9083 -2.08285
thorax 1.199 -6.46363 3.93884
lowerneck -8.02204 19.8649 2.08989
upperneck 17.0181 30.2441 -14.19
head 9.26223 13.1855 -1.35695
rclavicle 5.08889e-014 8.5875e-014
rhumerus 18.0447 -17.2048 -68.9646
rradius 108.709
rwrist -9.55814
rhand -60.244 54.7272
rfingers 7.12502
rthumb -32.3841 27.599
lclavicle 5.08889e-014 8.5875e-014
lhumerus 103.756 -47.4596 42.5435
lradius 34.7685
lwrist -10.921
lhand -28.5176 0.581406
lfingers 7.12502
lthumb -181.886 -149.447
rfemur -31.9001 16.9835 22.78
rtibia 31.4748
rfoot -8.93106 16.3693
rtoes 15.3306
lfemur -2.79392 14.1993 4.56615
ltibia 27.4133
lfoot -2.365 22.3902
ltoes -33.2335
269
root -6.52702 17.7632 2.57609 1.49087 46.4487 -12.8625
lowerback 2.55548 -9.63844 -11.4466
upperback 0.518661 -13.0378 -2.04898
thorax 1.16115 -6.52499 4.02166
lowerneck -8.34299 19.9379 1.81074
upperneck 16.8233 30.3243 -14.1237
head 9.20278 13.2106 -1.27443
rclavicle -1.78906e-015 1.59028e-014
rhumerus 18.9169 -17.5559 -67.9457
rradius 108.975
rwrist -8.53322
rhand -60.3097 55.1461
rfingers 7.12502
rthumb -32.4466 28.0307
lclavicle -1.78906e-015 1.59028e-014
lhumerus 104.798 -46.6175 42.0954
lradius 35.1068
lwrist -10.808
lhand -29.7134 0.346591
lfingers 7.12502
lthumb -183.041 -149.695
rfemur -31.9894 17.116 22.6558
rtibia 31.5057
rfoot -8.98868 16.4209
rtoes 15.2091
lfemur -2.63598 14.159 4.46436
ltibia 27.3166
lfoot -2.8975 22.3881
ltoes -32.1143
270
root -6.5271 17.7618 2.59728 1.73142 46.2995 -12.6505
lowerback 2.56472 -9.67012 -11.5075
upperback 0.423428 -13.0889 -2.09687
thorax 1.06528 -6.54123 4.01363
lowerneck -8.21106 19.9578 1.85632
upperneck 16.4565 30.2924 -14.2819
head 9.08384 13.2246 -1.35627
rclavicle 1.22849e-013 2.54444e-014
rhumerus 19.5617 -17.9854 -66.9426
rradius 109.375
rwrist -7.59127
rhand -60.1877 55.8343
rfingers 7.12502
rthumb -32.3305 28.6952
lclavicle 1.22849e-013 2.54444e-014
lhumerus 105.631 -46.0668 41.8641
lradius 35.5284
lwrist -10.7736
lhand -30.5026 -0.270837
lfingers 7.12502
lthumb -183.803 -150.325
rfemur -32.0574 17.3452 22.5176
rtibia 31.5218
rfoot -9.01152 16.3686
rtoes 15.2221
lfemur -2.48099 14.0473 4.34607
ltibia 27.2472
lfoot -3.81199 22.5025
ltoes -29.8458
271
root -6.52313 17.7741 2.61877 1.85529 46.1608 -12.5792
lowerback 2.56356 -9.69476 -11.3167
upperback 0.297125 -13.1271 -2.22325
thorax 0.866455 -6.54366 3.80906
lowerneck -7.79196 19.991 2.10958
upperneck 16.0112 30.2435 -14.5047
head 8.92924 13.2603 -1.51116
rclavicle 8.94531e-015 3.18055e-015
rhumerus 19.945 -18.4692 -65.9809
rradius 109.817
rwrist -6.7142
rhand -60.0767 56.4924
rfingers 7.12502
rthumb -32.2249 29.3318
lclavicle 8.94531e-015 3.18055e-015
lhumerus 106.387 -45.7207 41.6096
lradius 35.9732
lwrist -10.7853
lhand -30.5867 -0.406988
lfingers 7.12502
lthumb -183.884 -150.463
rfemur -32.0798 17.5899 22.4762
rtibia 31.5417
rfoot -9.03979 16.3235
rtoes 15.2771
lfemur -2.45302 14.0573 4.29424
ltibia 27.1409
lfoot -3.49998 22.8189
ltoes -30.1099
272
root -6.51919 17.7779 2.63462 1.8926 46.0138 -12.6429
lowerback 2.61149 -9.84623 -11.1297
upperback 0.235463 -13.34 -2.07669
thorax 0.799654 -6.64741 3.86664
lowerneck -8.13917 20.1762 1.3786
upperneck 15.7333 30.4913 -14.3475
head 8.77806 13.3566 -1.34238
rclavicle 6.99722e-014 6.99722e-014
rhumerus 20.886 -18.6116 -64.9868
rradius 110.111
rwrist -5.86928
rhand -60.2432 56.688
rfingers 7.12502
rthumb -32.3834 29.5597
lclavicle 6.99722e-014 6.99722e-014
lhumerus 106.665 -44.9137 41.8959
lradius 36.3902
lwrist -11.2995
lhand -30.8737 -0.128928
lfingers 7.12502
lthumb -184.161 -150.19
rfemur -32.1128 17.7756 22.5359
rtibia 31.5115
rfoot -9.05339 16.3629
rtoes 15.2785
lfemur -2.35782 14.0101 4.34887
ltibia 27.0309
lfoot -3.4231 22.9849
ltoes -30.3107
273
root -6.51852 17.7741 2.65023 2.01072 45.8555 -12.5239
lowerback 2.78719 -10.1855 -11.2027
upperback 0.378401 -13.8139 -1.54824
thorax 1.0714 -6.91239 4.40707
lowerneck -10.2002 20.4936 -1.15691
upperneck 15.7887 31.1989 -13.6659
head 8.70571 13.4914 -0.619775
rclavicle 1.18078e-013 2.8625e-014
rhumerus 23.1027 -18.2823 -64.0678
rradius 110.241
rwrist -5.05932
rhand -60.1995 57.0893
rfingers 7.12502
rthumb -32.3417 29.9525
lclavicle 1.18078e-013 2.8625e-014
lhumerus 106.713 -43.0012 42.5321
lradius 36.625
lwrist -12.5692
lhand -32.2674 0.278859
lfingers 7.12502
lthumb -185.507 -149.813
rfemur -32.0988 17.9654 22.4725
rtibia 31.4554
rfoot -8.98195 16.4012
rtoes 15.6231
lfemur -2.13079 13.8394 4.30033
ltibia 26.9147
lfoot -3.25144 22.9751
ltoes -30.9973
274
root -6.51669 17.779 2.66883 2.24769 45.7261 -12.2137
lowerback 2.85255 -9.98588 -11.2424
upperback 0.19807 -13.5669 -1.92001
thorax 0.724124 -6.75841 4.11293
lowerneck -9.39444 20.3059 0.0128814
upperneck 15.723 30.792 -13.9454
head 8.73938 13.3887 -0.938642
rclavicle -8.84592e-014 -2.8625e-014
rhumerus 22.623 -19.3493 -62.8816
rradius 110.648
rwrist -4.13017
rhand -60.26 57.8402
rfingers 7.12502
rthumb -32.3994 30.7152
lclavicle -8.84592e-014 -2.8625e-014
lhumerus 107.958 -43.2429 41.6361
lradius 37.035
lwrist -13.1711
lhand -33.5356 0.540025
lfingers 7.12502
lthumb -186.731 -149.587
rfemur -32.0711 18.0652 22.2838
rtibia 31.4583
rfoot -8.84779 16.5051
rtoes 16.5053
lfemur -2.02594 13.7787 4.10328
ltibia 26.7286
lfoot -1.83051 23.0219
ltoes -33.9206
275
root -6.5133 17.7869 2.68612 2.4795 45.613 -11.98
lowerback 2.85541 -9.91274 -11.2755
upperback 0.045568 -13.4801 -2.14981
thorax 0.500085 -6.69422 3.92757
lowerneck -8.67333 20.2708 0.824325
upperneck 15.4476 30.6167 -14.2472
head 8.681 13.3888 -1.2039
rclavicle 4.45278e-014 0
rhumerus 22.4171 -20.12 -61.7484
rradius 110.962
rwrist -3.15866
rhand -60.7048 58.492
rfingers 7.12502
rthumb -32.8226 31.4545
lclavicle 4.45278e-014 0
lhumerus 108.562 -43.3615 41.5889
lradius 37.6335
lwrist -12.6145
lhand -33.2774 -0.163151
lfingers 7.12502
lthumb -186.482 -150.282
rfemur -32.0976 18.0872 22.1547
rtibia 31.4873
rfoot -8.79447 16.6432
rtoes 17.1231
lfemur -1.97726 13.8905 3.96871
ltibia 26.5109
lfoot -0.937688 22.9925
ltoes -35.4045
276
root -6.51169 17.7871 2.69953 2.6566 45.4912 -11.9142
lowerback 2.85319 -9.96736 -11.2364
upperback -0.0775385 -13.562 -2.14743
thorax 0.37522 -6.72453 3.92122
lowerneck -8.52598 20.379 0.793465
upperneck 15.2023 30.7059 -14.2468
head 8.57359 13.4609 -1.216
rclavicle -3.99557e-014 1.90833e-014
rhumerus 22.7711 -20.6234 -60.7326
rradius 111.224
rwrist -2.26602
rhand -60.8388 58.9566
rfingers 7.12502
rthumb -32.95 31.9459
lclavicle -3.99557e-014 1.90833e-014
lhumerus 108.962 -42.9785 41.7559
lradius 38.0582
lwrist -12.274
lhand -33.248 -0.684068
lfingers 7.12502
lthumb -186.454 -150.802
rfemur -32.2144 18.2163 22.0994
rtibia 31.4854
rfoot -8.84212 16.6345
rtoes 16.9474
lfemur -1.86836 13.9817 3.96822
ltibia 26.3439
lfoot -1.63036 22.9978
ltoes -33.8188
